# xmcd
#
# Track frame offsets: 
#        150
#        11854
#        23131
#        36203
#        51853
#        64810
#
# Disc length: 1042 seconds
#
# Revision: 0
# Processed by: cddbd v1.5.2PL0 Copyright (c) Steve Scherf et al.
# Submitted via: ExactAudioCopy v1.0b3
#
DISCID=4b041006
DTITLE=The Darrell Brothers - The Darrell Brothers
DYEAR=2016
DGENRE=Bluegrass
TTITLE0=Mountain Twerker
TTITLE1=Healthcare Dot Gov
TTITLE2=The Part Of Her (That'sDominating Me)
TTITLE3=Bad Country Anthem
TTITLE4=Compact Car
TTITLE5=ChristmasTime In The Country
EXTD=
EXTT0=
EXTT1=
EXTT2=
EXTT3=
EXTT4=
EXTT5=
PLAYORDER=
